<svg width="52" height="60" viewBox="0 0 52 60" fill="none" xmlns="http://www.w3.org/2000/svg">
<g clip-path="url(#clip0_355_302)">
<path d="M31.3338 0C48.4948 0 51.9928 9.498 51.9928 16.284V31.654C51.9928 31.7535 51.9533 31.8488 51.8829 31.9192C51.8126 31.9895 51.7172 32.029 51.6178 32.029H26.9128C26.7348 32.0286 26.5586 32.0636 26.3944 32.132C26.2301 32.2004 26.0812 32.3009 25.9561 32.4275C25.8311 32.5541 25.7326 32.7043 25.6662 32.8694C25.5999 33.0345 25.5671 33.2111 25.5698 33.389C25.8038 45.218 29.1958 48.164 36.7758 48.442C36.8739 48.4451 36.9671 48.4861 37.0357 48.5564C37.1043 48.6267 37.143 48.7208 37.1438 48.819V59.019C37.1432 59.0685 37.133 59.1174 37.1135 59.163C37.0941 59.2085 37.0659 59.2498 37.0305 59.2844C36.9951 59.319 36.9533 59.3464 36.9073 59.3648C36.8614 59.3833 36.8123 59.3925 36.7628 59.392C19.5138 59.201 14.7618 46.003 14.5478 39.381V21.679C14.5478 21.473 14.7158 21.305 14.9228 21.305H39.6728C40.4228 21.305 41.0428 20.699 41.0198 19.95C40.9228 16.717 40.0478 10.787 32.5458 10.787H0.37476C0.318309 10.787 0.262595 10.7742 0.211773 10.7496C0.16095 10.725 0.11633 10.6893 0.081242 10.6451C0.0461535 10.6009 0.0215015 10.5493 0.00912448 10.4942C-0.00325254 10.4391 -0.00303518 10.382 0.00976037 10.327L2.34576 0.29C2.38576 0.12 2.53576 0 2.71076 0H31.3338ZM49.3448 0.368H48.6908V2.15H48.2608V0.37H47.6058V0H49.3448V0.368ZM50.2378 0L50.8598 1.524L51.4798 0H51.9998V2.15H51.5698V0.763L50.9778 2.148H50.7428L50.1468 0.762V2.149H49.7168V0H50.2378Z" fill="#171717"/>
</g>
<defs>
<clipPath id="clip0_355_302">
<rect width="52" height="60" fill="white"/>
</clipPath>
</defs>
</svg>
